<svg version="1.1" id="Layer_1" xmlns="http://www.w3.org/2000/svg" xmlns:xlink="http://www.w3.org/1999/xlink" x="0px" y="0px"
	 width="100%" viewBox="0 0 1747 279" enable-background="new 0 0 1747 279" xml:space="preserve">
<path fill="#FFFFFF" opacity="1.000000" stroke="none" 
	d="
M1748.000000,57.999996 
	C1748.000000,131.985153 1748.000000,205.970322 1748.000000,279.951477 
	C1165.666626,279.947449 583.333313,279.947449 1.000000,279.947449 
	C1.000000,244.901901 1.000000,209.908890 1.326923,174.640686 
	C2.425595,176.721161 2.948862,179.195618 4.008933,181.413498 
	C11.590608,197.275879 25.777285,203.045624 41.809799,203.784439 
	C64.412262,204.826019 87.084656,204.432877 109.727501,204.479721 
	C120.733383,204.502487 129.803802,200.488693 135.619568,190.641434 
	C139.994278,183.234192 144.182419,175.714066 148.676666,168.380890 
	C153.348480,160.757950 159.598541,155.754211 169.249939,155.941574 
	C182.406418,156.196976 195.571777,156.052261 208.732971,155.995514 
	C236.387283,155.876297 258.232544,144.542816 273.284515,121.305717 
	C282.731995,106.720802 291.543549,91.699501 300.080780,76.558418 
	C305.418488,67.091728 310.604950,57.351727 314.200562,47.149742 
	C317.124115,38.854618 316.577057,29.876701 311.773315,21.683466 
	C304.211365,8.785923 292.610107,2.949704 278.216797,1.542369 
	C278.249969,1.335733 278.000000,1.000000 278.000000,1.000000 
	C768.000000,1.000000 1258.000000,1.000000 1748.000000,1.000000 
	C1748.000000,17.759651 1748.000000,34.421871 1747.608765,51.400192 
	C1745.918823,51.144218 1744.637451,50.130394 1743.318237,50.078144 
	C1738.169678,49.874237 1733.005371,50.093624 1727.854126,49.929470 
	C1722.440063,49.756950 1716.957031,48.628174 1711.648560,49.217800 
	C1707.015259,49.732437 1702.470703,51.395370 1699.807861,56.423725 
	C1694.857544,65.771690 1689.249390,74.769142 1684.023560,83.974106 
	C1680.912476,89.454262 1678.008057,95.051865 1674.883057,100.832817 
	C1673.427979,99.735962 1672.902710,99.530014 1672.685059,99.148529 
	C1665.439087,86.449059 1658.287842,73.694824 1650.951904,61.047783 
	C1649.287598,58.178570 1647.490234,54.986774 1644.903442,53.126411 
	C1636.738403,47.254242 1627.207886,49.207863 1618.033203,49.423199 
	C1616.998169,49.447498 1615.942871,49.530441 1614.928955,49.375847 
	C1610.019043,48.627247 1605.203491,48.279015 1600.224731,52.481136 
	C1601.261597,56.096222 1601.799805,60.389038 1603.681030,63.977947 
	C1606.655273,69.652061 1610.567261,74.830452 1614.015991,80.260719 
	C1624.367065,96.558228 1634.399780,113.067581 1645.135010,129.107193 
	C1650.703003,137.426270 1653.439819,145.975723 1653.115967,155.997833 
	C1652.658691,170.146133 1652.963623,184.320389 1653.016724,198.483261 
	C1653.040283,204.734085 1655.165161,208.200211 1660.722534,208.716248 
	C1667.098145,209.308243 1673.591675,208.638901 1680.033569,208.504120 
	C1681.627319,208.470779 1683.281128,208.079742 1684.801270,208.383698 
	C1688.859863,209.195236 1693.565552,206.358780 1693.955811,202.368164 
	C1694.450806,197.305527 1694.892578,192.218185 1694.954346,187.136612 
	C1695.097900,175.308014 1694.819214,163.472122 1695.104858,151.648666 
	C1695.196411,147.855927 1695.834473,143.769745 1697.428223,140.385513 
	C1700.489258,133.885376 1704.219971,127.671829 1708.017212,121.553017 
	C1715.902588,108.846512 1724.041138,96.297363 1732.020996,83.649101 
	C1737.395630,75.129890 1742.676880,66.551758 1748.000000,57.999996 
M1190.000000,178.541458 
	C1190.000000,176.042404 1189.936279,173.541428 1190.012329,171.044693 
	C1190.211670,164.503342 1194.240723,161.496429 1200.763062,162.908356 
	C1201.560425,163.080963 1202.425049,163.058716 1203.246216,162.986481 
	C1208.507080,162.523712 1212.240967,165.500824 1214.625122,169.390915 
	C1220.478760,178.942276 1225.385864,189.083160 1231.417358,198.511063 
	C1233.673096,202.036987 1237.567139,205.319183 1241.448730,206.850266 
	C1253.340454,211.540741 1265.947510,208.541779 1278.230835,208.675781 
	C1283.210815,208.730118 1285.252197,203.231857 1282.827637,198.598297 
	C1281.640015,196.328491 1279.962280,194.320862 1278.613892,192.128387 
	C1272.301025,181.863220 1266.179688,171.476303 1259.679565,161.331802 
	C1255.706299,155.130875 1256.188110,149.282364 1261.864990,144.651352 
	C1268.725464,139.054794 1272.180054,131.203079 1274.824341,123.263397 
	C1277.899658,114.029640 1277.599731,104.355118 1276.083618,94.653679 
	C1273.708496,79.457703 1265.295166,67.859261 1253.400146,59.449757 
	C1242.155640,51.500183 1228.553467,49.003075 1214.704834,49.000504 
	C1207.537231,48.999176 1200.367676,48.899612 1193.203003,49.044071 
	C1189.783447,49.113014 1186.376343,49.687386 1182.957397,49.952736 
	C1181.466797,50.068420 1179.956787,50.055347 1178.462280,49.975784 
	C1172.880493,49.678646 1167.249023,48.687603 1161.732666,49.138187 
	C1151.257812,49.993786 1147.098877,50.857811 1147.082031,64.741249 
	C1147.062622,80.819588 1147.714233,96.897903 1147.979004,112.977798 
	C1148.102295,120.470695 1148.128174,127.970177 1147.960327,135.461349 
	C1147.820190,141.715347 1147.017334,147.964157 1147.068359,154.210678 
	C1147.162964,165.793335 1147.685669,177.372162 1147.987427,188.953674 
	C1148.069824,192.116806 1147.876343,195.289810 1148.026978,198.447891 
	C1148.316162,204.508072 1151.881714,208.767014 1157.199707,208.941177 
	C1164.355591,209.175507 1171.536377,209.255478 1178.685303,208.931229 
	C1186.780518,208.564056 1189.977295,204.808655 1189.997314,196.522141 
	C1190.011108,190.858002 1190.000000,185.193802 1190.000000,178.541458 
M603.036194,181.558624 
	C606.148071,187.336823 608.757141,193.475632 612.551147,198.764542 
	C615.018860,202.204636 618.803833,205.485489 622.708008,206.962219 
	C634.475098,211.412964 646.918335,208.561569 659.054932,208.725403 
	C664.276855,208.795898 666.323669,203.206223 663.681885,198.310455 
	C662.464294,196.054031 660.763489,194.064148 659.412537,191.872879 
	C653.086060,181.611771 646.939331,171.236786 640.449585,161.080658 
	C637.332703,156.202805 636.826538,152.912704 640.267395,148.334030 
	C642.172974,145.798370 645.370239,144.067902 646.770081,141.348846 
	C650.911377,133.305130 656.244324,125.919609 657.462463,116.350159 
	C659.298950,101.923645 657.713684,88.012764 650.104980,75.961891 
	C637.609985,56.172096 617.990662,48.963905 595.304565,49.047585 
	C590.051636,49.066959 584.802368,49.891129 579.548584,49.927319 
	C575.466064,49.955444 571.382263,49.141827 567.292725,49.071098 
	C564.716919,49.026554 562.122681,49.981220 559.548584,49.926819 
	C553.961914,49.808754 548.329285,48.682701 542.812317,49.139435 
	C532.353821,50.005276 528.125122,50.666656 528.088074,64.671776 
	C528.044678,81.088882 528.716003,97.506966 528.978455,113.926201 
	C529.103638,121.755310 529.129944,129.590851 528.962830,137.418396 
	C528.800781,145.007339 528.076233,152.589661 528.073303,160.175064 
	C528.070435,167.593597 528.752136,175.009842 528.970764,182.431885 
	C529.122803,187.593719 528.906677,192.765747 529.022644,197.929459 
	C529.183044,205.070999 533.178711,208.972031 540.184448,208.995605 
	C546.350647,209.016342 552.518005,209.074020 558.682861,208.980377 
	C565.737061,208.873230 569.340515,206.322174 570.772156,200.482773 
	C571.082031,199.219162 570.988770,197.843887 570.991455,196.519867 
	C571.008423,188.187134 571.069153,179.853546 570.971680,171.521927 
	C570.920715,167.163742 573.073303,162.748703 576.602295,162.528152 
	C581.915710,162.196045 588.428955,161.358459 592.518921,166.229370 
	C596.324402,170.761444 599.223206,176.054779 603.036194,181.558624 
M1021.348999,93.968330 
	C1027.360229,87.960861 1034.877808,86.788681 1043.040161,85.711731 
	C1057.830566,83.760231 1069.445068,87.550720 1078.442383,99.698341 
	C1080.690796,102.733940 1084.125488,106.223976 1087.502197,106.841820 
	C1097.799805,108.725967 1108.371094,109.429741 1118.750488,106.964600 
	C1122.782227,106.007072 1123.823608,102.665115 1122.462036,99.045700 
	C1120.174316,92.963707 1118.271362,86.532166 1114.802979,81.152534 
	C1110.739990,74.850586 1106.045532,68.320404 1100.094971,63.993443 
	C1084.185791,52.425251 1066.125244,46.171715 1046.132568,47.062527 
	C1040.290649,47.322823 1034.497070,48.554104 1028.654907,48.950851 
	C1018.199768,49.660866 1008.764587,53.784260 1000.506714,59.428474 
	C992.263306,65.062790 984.514771,72.021416 978.262207,79.779922 
	C973.185730,86.079048 969.953186,94.177040 967.204163,101.938164 
	C965.079834,107.935471 965.110413,114.672424 963.937500,121.035301 
	C961.504089,134.235489 963.582031,147.048721 968.018799,159.364395 
	C972.886230,172.875443 980.806824,184.272186 992.517090,193.276276 
	C1006.904724,204.339096 1023.059998,209.934677 1040.774048,210.848999 
	C1055.422485,211.605118 1069.869141,210.283295 1083.773193,204.234070 
	C1092.629272,200.381088 1100.233398,195.038055 1106.792847,188.435059 
	C1115.591309,179.578033 1120.127808,168.108841 1123.349365,156.171692 
	C1124.341431,152.495407 1120.063477,146.890320 1116.331909,147.026260 
	C1108.599609,147.308014 1100.870605,147.909485 1093.139404,147.923462 
	C1087.103882,147.934372 1082.682617,150.411987 1080.115723,155.599731 
	C1075.480957,164.967102 1067.099854,170.334503 1057.972168,172.495056 
	C1050.041870,174.372192 1041.435669,173.452515 1032.891479,170.331558 
	C1016.419189,164.314713 1008.582336,148.663788 1007.127991,134.729782 
	C1005.523010,119.351921 1009.361633,105.358574 1021.348999,93.968330 
M849.779541,49.002586 
	C845.419189,49.108662 840.912659,49.971596 836.729004,49.163197 
	C828.029419,47.482201 821.000000,52.611156 821.000000,61.466618 
	C820.999939,75.298737 821.081421,89.131607 820.954102,102.962563 
	C820.911926,107.549919 820.014587,112.134949 820.052185,116.716591 
	C820.281006,144.630630 820.666748,172.543381 820.999573,200.456558 
	C821.003540,200.789780 820.977417,201.124924 821.004028,201.456055 
	C821.241394,204.406158 822.195374,206.238754 825.559509,207.337830 
	C835.496704,210.584335 845.582764,209.021469 855.521851,208.559280 
	C861.383118,208.286713 863.078430,204.344009 863.016724,198.746399 
	C862.945068,192.248596 863.485596,185.703552 862.877441,179.262360 
	C862.113586,171.170898 866.554260,167.877060 874.310547,167.942032 
	C886.555603,168.044601 898.964844,168.955551 910.630615,163.955215 
	C916.917908,161.260239 923.947205,159.279404 929.068542,155.064697 
	C947.020508,140.290726 951.959778,120.345093 948.946106,98.065018 
	C946.740234,81.757828 938.031799,69.390732 924.736206,59.944599 
	C913.457153,51.931206 900.560181,49.599865 887.226074,49.100525 
	C880.663452,48.854759 874.061951,49.904198 867.476501,49.927299 
	C861.893494,49.946892 856.308228,49.333534 849.779541,49.002586 
M376.000031,132.500137 
	C376.333374,151.913055 376.675537,171.325851 376.991974,190.739044 
	C377.048981,194.236984 376.891571,197.741089 377.034210,201.234131 
	C377.150879,204.091553 377.893555,206.023041 381.376404,207.226379 
	C391.304291,210.656525 401.378113,208.917923 411.308868,208.601837 
	C416.503326,208.436508 418.885986,206.044495 418.981384,198.972900 
	C419.069000,192.476166 419.464996,185.935379 418.883362,179.489960 
	C418.140472,171.257065 422.206604,167.871811 430.579681,167.938477 
	C442.654663,168.034637 454.901337,168.973312 466.398315,163.971085 
	C473.103455,161.053741 480.430878,159.691132 486.192352,154.446228 
	C503.148041,139.010788 507.885895,119.622429 504.931671,97.810921 
	C502.746887,81.680260 493.977692,69.411331 480.960938,60.000179 
	C470.075836,52.130260 457.437073,49.775616 444.476746,49.122864 
	C437.427917,48.767853 430.317657,49.869324 423.231842,49.929077 
	C418.484375,49.969105 413.735535,49.163231 408.979462,49.041546 
	C402.486877,48.875427 395.986847,48.999599 389.489990,49.000244 
	C380.913910,49.001095 377.000122,52.843254 377.000061,61.260643 
	C376.999969,75.424507 377.120239,89.589752 376.957214,103.751740 
	C376.850739,113.003700 376.333374,122.250916 376.000031,132.500137 
M687.034058,68.836845 
	C687.356018,73.418274 687.885071,77.996468 687.956543,82.581802 
	C688.101807,91.909012 688.000000,101.240082 688.000000,110.569557 
	C688.000000,118.735085 688.000000,126.900620 688.000000,135.066147 
	C688.000000,146.058716 688.043091,157.051590 687.967773,168.043655 
	C687.950378,170.591019 687.379028,173.132431 687.325073,175.682144 
	C687.221924,180.558014 688.113037,185.603317 687.152100,190.282715 
	C684.935486,201.077240 690.705933,208.999237 701.619446,208.999771 
	C713.276489,209.000351 724.933472,208.999512 736.590515,208.999435 
	C751.913513,208.999329 767.237488,209.100128 782.558899,208.945587 
	C788.044189,208.890259 791.817688,205.506668 791.948120,200.751083 
	C792.144531,193.594650 792.145264,186.424713 791.942932,179.268616 
	C791.827332,175.178360 789.284973,172.547729 785.300354,172.078918 
	C779.921082,171.445999 774.483459,171.127609 769.065247,171.044769 
	C758.904724,170.889450 748.740112,171.007217 738.577209,170.997513 
	C731.900452,170.991150 730.028076,169.171188 730.001892,162.693985 
	C729.990479,159.862625 729.989136,157.031113 730.002197,154.199753 
	C730.031921,147.779495 732.799744,145.012573 739.254639,145.004333 
	C751.246521,144.989014 763.238525,145.025772 775.230286,144.989090 
	C781.282715,144.970581 784.356750,143.261322 784.741516,138.262924 
	C785.314453,130.819382 785.537659,123.227539 784.694824,115.837357 
	C784.093323,110.562790 782.127869,108.016434 774.614319,108.004974 
	C762.622437,107.986679 750.630371,107.962898 738.638733,108.019066 
	C734.089722,108.040367 731.252014,106.331505 730.170715,101.582008 
	C728.192688,92.894646 730.641602,87.390419 737.287903,87.039452 
	C746.523743,86.551735 755.772034,86.180428 765.018738,86.066574 
	C769.429565,86.012268 773.852661,86.977310 778.263916,86.927345 
	C784.990479,86.851135 789.827820,82.796135 789.962891,77.372147 
	C790.120422,71.047012 790.205078,64.705971 789.928955,58.388977 
	C789.737366,54.006416 787.470642,50.700798 782.807129,50.071072 
	C778.428589,49.479816 773.992981,49.126858 769.575562,49.045483 
	C761.104492,48.889427 752.628479,49.000088 744.154541,49.000088 
	C733.661621,49.000088 723.167297,48.899937 712.676392,49.044315 
	C707.773193,49.111790 702.831726,50.224419 697.987000,49.846359 
	C690.367432,49.251755 686.344849,53.321556 687.785217,60.710476 
	C688.239136,63.039562 687.604309,65.580887 687.034058,68.836845 
M1420.786499,208.007935 
	C1422.516602,208.338593 1424.255981,208.982727 1425.974976,208.932526 
	C1429.223755,208.837631 1432.454956,208.168182 1435.704346,208.056824 
	C1440.512451,207.892105 1445.330566,207.961273 1450.143555,208.013977 
	C1454.671021,208.063568 1455.089844,204.839478 1454.897339,201.661530 
	C1454.765991,199.495026 1453.917603,197.278320 1452.990479,195.268250 
	C1444.388062,176.616882 1435.787720,157.963470 1426.999634,139.399231 
	C1422.206177,129.273499 1416.884888,119.397598 1412.097534,109.269135 
	C1403.621704,91.336792 1395.430786,73.270058 1386.999756,55.316357 
	C1383.349854,47.543793 1371.203125,44.388691 1365.240967,51.498436 
	C1361.352051,56.135941 1358.203247,61.567768 1355.572876,67.051491 
	C1349.844727,78.993462 1344.819092,91.270416 1339.217651,103.275810 
	C1329.723755,123.624245 1320.026367,143.877884 1310.375366,164.152740 
	C1305.287964,174.840164 1299.776123,185.341156 1295.100952,196.203888 
	C1291.754272,203.979919 1293.130615,209.248428 1301.530273,208.977478 
	C1308.441772,208.754517 1315.374023,207.790955 1322.248047,208.135956 
	C1331.233398,208.586945 1336.249878,204.084366 1339.871704,196.652603 
	C1342.356689,191.553574 1346.609741,188.925827 1352.425537,188.986160 
	C1358.413818,189.048279 1364.403320,188.999954 1370.392212,188.999954 
	C1378.888672,188.999954 1387.389648,189.172485 1395.880005,188.945190 
	C1402.636230,188.764328 1407.514526,191.907303 1409.763550,197.740601 
	C1411.782349,202.976639 1415.170898,205.948532 1420.786499,208.007935 
M1513.502319,109.998672 
	C1507.872803,120.285652 1502.380859,130.651077 1496.577026,140.838776 
	C1490.058716,152.280518 1483.071899,163.457230 1476.644287,174.948013 
	C1472.118652,183.038696 1467.841797,191.309540 1464.109497,199.788559 
	C1461.572998,205.551117 1464.414673,208.949371 1470.851685,208.992630 
	C1476.181519,209.028442 1481.512695,209.059631 1486.841919,208.989380 
	C1507.069092,208.722748 1527.295044,208.266342 1547.522705,208.181015 
	C1558.258911,208.135727 1569.020752,209.262268 1579.728271,208.822723 
	C1588.168213,208.476242 1591.494019,206.723068 1591.896973,200.607880 
	C1592.344849,193.808182 1592.172974,186.950333 1591.941406,180.128983 
	C1591.771118,175.114075 1589.023560,172.222839 1584.655273,172.024414 
	C1575.578613,171.612198 1566.498291,171.222565 1557.415039,171.033783 
	C1549.589844,170.871140 1541.757690,171.068634 1533.930298,170.973984 
	C1529.321289,170.918243 1527.943604,168.186188 1530.290527,164.251511 
	C1532.172852,161.095642 1533.941772,157.872101 1535.757202,154.676422 
	C1544.086060,140.014603 1552.454956,125.375282 1560.720337,110.677765 
	C1563.853149,105.106949 1566.633423,99.337822 1569.772095,93.770523 
	C1576.085205,82.572052 1582.653687,71.516144 1588.875610,60.268021 
	C1591.873901,54.847641 1589.304688,50.377380 1583.239868,50.029324 
	C1575.353149,49.576714 1567.455444,49.080093 1559.560547,49.046001 
	C1532.077759,48.927338 1504.594116,48.976109 1477.110718,49.022068 
	C1472.114014,49.030422 1468.098145,52.989021 1468.025391,57.916397 
	C1467.924683,64.744110 1467.864380,71.578316 1468.059570,78.401939 
	C1468.151978,81.633118 1469.291992,84.599403 1473.182007,85.041420 
	C1479.485962,85.757736 1485.791870,86.698936 1492.118530,86.915588 
	C1501.438110,87.234718 1510.777588,86.934731 1520.105957,87.073486 
	C1521.499390,87.094200 1522.878540,88.068474 1524.825684,88.817566 
	C1520.972290,96.116928 1517.468506,102.754097 1513.502319,109.998672 
M160.291748,236.812424 
	C163.890991,230.469269 167.489838,224.125870 171.089630,217.783020 
	C174.837051,211.180099 180.009537,206.582672 188.014175,206.513809 
	C200.140793,206.409454 212.269165,206.523010 224.396759,206.514420 
	C240.406769,206.503098 255.578247,203.186981 269.413727,194.831451 
	C281.462006,187.555237 290.380798,177.288666 297.841583,165.481705 
	C308.277008,148.967285 319.744385,133.064285 329.452698,116.143738 
	C337.555756,102.020981 336.714905,87.196739 327.289734,72.905769 
	C326.459595,74.371735 325.787720,75.487968 325.181854,76.638947 
	C318.714966,88.924507 312.777832,101.525391 305.674835,113.430923 
	C295.569794,130.368408 284.185120,146.448456 270.197174,160.555038 
	C257.416107,173.444534 242.553238,181.211700 224.005402,181.021973 
	C210.175934,180.880508 196.343643,181.041412 182.513016,180.978836 
	C171.789871,180.930328 163.630508,185.276855 158.318665,194.697937 
	C155.305328,200.042389 152.082611,205.284256 149.357086,210.772415 
	C143.066574,223.439148 133.601562,229.778076 118.888824,229.172424 
	C100.756058,228.426010 82.568581,228.903717 64.405899,229.024796 
	C51.573978,229.110321 38.784992,229.262115 27.291006,221.537735 
	C28.588305,237.910675 39.017159,249.645096 54.990364,251.867188 
	C66.899956,253.523972 78.962700,254.634048 90.976784,254.838501 
	C104.545349,255.069382 118.170738,253.183945 131.706833,253.753571 
	C145.138550,254.318832 153.893784,248.686600 160.291748,236.812424 
z"/>
<path fill="#030303" opacity="1.000000" stroke="none" 
	d="
M278.183594,1.749006 
	C292.610107,2.949704 304.211365,8.785923 311.773315,21.683466 
	C316.577057,29.876701 317.124115,38.854618 314.200562,47.149742 
	C310.604950,57.351727 305.418488,67.091728 300.080780,76.558418 
	C291.543549,91.699501 282.731995,106.720802 273.284515,121.305717 
	C258.232544,144.542816 236.387283,155.876297 208.732971,155.995514 
	C195.571777,156.052261 182.406418,156.196976 169.249939,155.941574 
	C159.598541,155.754211 153.348480,160.757950 148.676666,168.380890 
	C144.182419,175.714066 139.994278,183.234192 135.619568,190.641434 
	C129.803802,200.488693 120.733383,204.502487 109.727501,204.479721 
	C87.084656,204.432877 64.412262,204.826019 41.809799,203.784439 
	C25.777285,203.045624 11.590608,197.275879 4.008933,181.413498 
	C2.948862,179.195618 2.425595,176.721161 1.326923,174.182739 
	C1.000000,169.975449 1.000000,165.950912 1.331439,161.275223 
	C3.866543,155.117950 5.531719,149.314453 8.376803,144.162537 
	C16.296171,129.822021 24.656235,115.723259 32.933487,101.582413 
	C43.480392,83.564087 53.928043,65.483208 64.785812,47.652981 
	C71.236938,37.059189 78.529572,27.311024 89.138542,19.956587 
	C102.849106,10.452047 117.567261,4.560278 133.979080,2.468098 
	C136.999359,2.083076 139.993698,1.494579 143.000000,1.000000 
	C155.020889,1.000000 167.041794,1.000000 179.754364,1.369047 
	C187.588089,1.822093 194.730255,1.987469 201.872116,1.975436 
	C227.309341,1.932577 252.746445,1.829368 278.183594,1.749006 
M143.425110,137.882568 
	C150.074677,133.335922 157.371780,131.298004 165.476059,131.425476 
	C179.134109,131.640366 192.836533,132.101654 206.444916,131.251892 
	C214.554535,130.745499 222.887222,128.879135 230.463211,125.935013 
	C241.351288,121.703796 249.612289,113.753609 255.714020,103.599487 
	C261.379333,94.171623 267.411255,84.964058 274.002045,74.517860 
	C233.870560,75.041985 195.129517,75.217827 156.410141,76.225494 
	C142.081757,76.598396 130.421738,83.645050 122.239700,95.615906 
	C118.897362,100.505959 116.338661,105.923767 113.196938,110.960167 
	C100.585754,131.176758 87.827705,151.302109 75.315842,171.579590 
	C74.164322,173.445831 73.247444,177.073166 74.213196,178.254227 
	C75.696518,180.068237 78.872047,181.197678 81.393997,181.323334 
	C87.348312,181.620010 93.359749,181.399704 99.313156,180.937988 
	C108.323296,180.239227 115.727028,176.744293 120.639305,168.540466 
	C125.307236,160.744720 130.403336,153.189301 135.631073,145.753082 
	C137.589218,142.967728 140.449493,140.816544 143.425110,137.882568 
M229.500000,26.003845 
	C202.180252,26.003845 174.857956,25.773558 147.541595,26.077349 
	C126.028679,26.316593 107.216545,34.222477 93.888832,51.055054 
	C83.673019,63.957390 75.667221,78.658409 67.137741,92.835739 
	C54.166336,114.396263 41.506786,136.146637 28.953344,157.953705 
	C27.299347,160.826920 26.278934,164.520676 26.329731,167.813324 
	C26.407194,172.834488 31.472324,177.202850 37.310852,178.529510 
	C42.262024,179.654526 45.201385,176.733032 47.381432,173.065063 
	C52.788235,163.968018 58.012184,154.760483 63.203747,145.537750 
	C71.240303,131.260956 78.884819,116.753242 87.275192,102.689232 
	C93.465881,92.312355 99.702744,81.740601 107.483322,72.585045 
	C120.212479,57.606407 137.375961,51.014435 157.002426,51.003162 
	C197.482483,50.979916 237.962585,51.002602 278.442657,50.990818 
	C286.744232,50.988403 290.247803,47.539684 290.485229,39.250256 
	C290.700287,31.742083 287.091125,27.024155 278.921204,26.676880 
	C262.800385,25.991642 246.642532,26.177958 229.500000,26.003845 
z"/>
<path fill="#000000" opacity="1.000000" stroke="none" 
	d="
M1748.000000,57.571533 
	C1742.676880,66.551758 1737.395630,75.129890 1732.020996,83.649101 
	C1724.041138,96.297363 1715.902588,108.846512 1708.017212,121.553017 
	C1704.219971,127.671829 1700.489258,133.885376 1697.428223,140.385513 
	C1695.834473,143.769745 1695.196411,147.855927 1695.104858,151.648666 
	C1694.819214,163.472122 1695.097900,175.308014 1694.954346,187.136612 
	C1694.892578,192.218185 1694.450806,197.305527 1693.955811,202.368164 
	C1693.565552,206.358780 1688.859863,209.195236 1684.801270,208.383698 
	C1683.281128,208.079742 1681.627319,208.470779 1680.033569,208.504120 
	C1673.591675,208.638901 1667.098145,209.308243 1660.722534,208.716248 
	C1655.165161,208.200211 1653.040283,204.734085 1653.016724,198.483261 
	C1652.963623,184.320389 1652.658691,170.146133 1653.115967,155.997833 
	C1653.439819,145.975723 1650.703003,137.426270 1645.135010,129.107193 
	C1634.399780,113.067581 1624.367065,96.558228 1614.015991,80.260719 
	C1610.567261,74.830452 1606.655273,69.652061 1603.681030,63.977947 
	C1601.799805,60.389038 1601.261597,56.096222 1600.224731,52.481136 
	C1605.203491,48.279015 1610.019043,48.627247 1614.928955,49.375847 
	C1615.942871,49.530441 1616.998169,49.447498 1618.033203,49.423199 
	C1627.207886,49.207863 1636.738403,47.254242 1644.903442,53.126411 
	C1647.490234,54.986774 1649.287598,58.178570 1650.951904,61.047783 
	C1658.287842,73.694824 1665.439087,86.449059 1672.685059,99.148529 
	C1672.902710,99.530014 1673.427979,99.735962 1674.883057,100.832817 
	C1678.008057,95.051865 1680.912476,89.454262 1684.023560,83.974106 
	C1689.249390,74.769142 1694.857544,65.771690 1699.807861,56.423725 
	C1702.470703,51.395370 1707.015259,49.732437 1711.648560,49.217800 
	C1716.957031,48.628174 1722.440063,49.756950 1727.854126,49.929470 
	C1733.005371,50.093624 1738.169678,49.874237 1743.318237,50.078144 
	C1744.637451,50.130394 1745.918823,51.144218 1747.608765,51.858147 
	C1748.000000,53.714359 1748.000000,55.428715 1748.000000,57.571533 
z"/>
<path fill="#FFFFFF" opacity="1.000000" stroke="none" 
	d="
M142.531342,1.000000 
	C139.993698,1.494579 136.999359,2.083076 133.979080,2.468098 
	C117.567261,4.560278 102.849106,10.452047 89.138542,19.956587 
	C78.529572,27.311024 71.236938,37.059189 64.785812,47.652981 
	C53.928043,65.483208 43.480392,83.564087 32.933487,101.582413 
	C24.656235,115.723259 16.296171,129.822021 8.376803,144.162537 
	C5.531719,149.314453 3.866543,155.117950 1.331439,160.812042 
	C1.000000,107.744003 1.000000,54.488007 1.000000,1.000000 
	C48.020641,1.000000 95.041664,1.000000 142.531342,1.000000 
z"/>
<path fill="#7F7F7F" opacity="1.000000" stroke="none" 
	d="
M278.216797,1.542369 
	C252.746445,1.829368 227.309341,1.932577 201.872116,1.975436 
	C194.730255,1.987469 187.588089,1.822093 180.223022,1.369047 
	C212.354233,1.000000 244.708450,1.000000 277.531342,1.000000 
	C278.000000,1.000000 278.249969,1.335733 278.216797,1.542369 
z"/>
<path fill="#000000" opacity="1.000000" stroke="none" 
	d="
M1190.000000,179.035553 
	C1190.000000,185.193802 1190.011108,190.858002 1189.997314,196.522141 
	C1189.977295,204.808655 1186.780518,208.564056 1178.685303,208.931229 
	C1171.536377,209.255478 1164.355591,209.175507 1157.199707,208.941177 
	C1151.881714,208.767014 1148.316162,204.508072 1148.026978,198.447891 
	C1147.876343,195.289810 1148.069824,192.116806 1147.987427,188.953674 
	C1147.685669,177.372162 1147.162964,165.793335 1147.068359,154.210678 
	C1147.017334,147.964157 1147.820190,141.715347 1147.960327,135.461349 
	C1148.128174,127.970177 1148.102295,120.470695 1147.979004,112.977798 
	C1147.714233,96.897903 1147.062622,80.819588 1147.082031,64.741249 
	C1147.098877,50.857811 1151.257812,49.993786 1161.732666,49.138187 
	C1167.249023,48.687603 1172.880493,49.678646 1178.462280,49.975784 
	C1179.956787,50.055347 1181.466797,50.068420 1182.957397,49.952736 
	C1186.376343,49.687386 1189.783447,49.113014 1193.203003,49.044071 
	C1200.367676,48.899612 1207.537231,48.999176 1214.704834,49.000504 
	C1228.553467,49.003075 1242.155640,51.500183 1253.400146,59.449757 
	C1265.295166,67.859261 1273.708496,79.457703 1276.083618,94.653679 
	C1277.599731,104.355118 1277.899658,114.029640 1274.824341,123.263397 
	C1272.180054,131.203079 1268.725464,139.054794 1261.864990,144.651352 
	C1256.188110,149.282364 1255.706299,155.130875 1259.679565,161.331802 
	C1266.179688,171.476303 1272.301025,181.863220 1278.613892,192.128387 
	C1279.962280,194.320862 1281.640015,196.328491 1282.827637,198.598297 
	C1285.252197,203.231857 1283.210815,208.730118 1278.230835,208.675781 
	C1265.947510,208.541779 1253.340454,211.540741 1241.448730,206.850266 
	C1237.567139,205.319183 1233.673096,202.036987 1231.417358,198.511063 
	C1225.385864,189.083160 1220.478760,178.942276 1214.625122,169.390915 
	C1212.240967,165.500824 1208.507080,162.523712 1203.246216,162.986481 
	C1202.425049,163.058716 1201.560425,163.080963 1200.763062,162.908356 
	C1194.240723,161.496429 1190.211670,164.503342 1190.012329,171.044693 
	C1189.936279,173.541428 1190.000000,176.042404 1190.000000,179.035553 
M1217.263794,87.002121 
	C1211.120239,87.001411 1204.969971,87.182503 1198.835083,86.951378 
	C1192.035278,86.695206 1189.936279,90.872581 1189.983032,95.640533 
	C1190.049805,102.451591 1189.977295,109.263893 1190.006836,116.075478 
	C1190.032715,122.058609 1193.369141,124.813080 1199.294189,124.055130 
	C1201.418701,123.783348 1203.848633,123.401123 1205.723755,124.133255 
	C1212.097656,126.621948 1217.976929,124.079094 1223.796875,122.553307 
	C1230.076416,120.907082 1236.134033,110.900864 1234.655518,104.489067 
	C1233.615234,99.978271 1231.767700,95.124779 1228.776855,91.761765 
	C1226.429688,89.122635 1221.780029,88.531387 1217.263794,87.002121 
z"/>
<path fill="#000000" opacity="1.000000" stroke="none" 
	d="
M602.778687,181.285797 
	C599.223206,176.054779 596.324402,170.761444 592.518921,166.229370 
	C588.428955,161.358459 581.915710,162.196045 576.602295,162.528152 
	C573.073303,162.748703 570.920715,167.163742 570.971680,171.521927 
	C571.069153,179.853546 571.008423,188.187134 570.991455,196.519867 
	C570.988770,197.843887 571.082031,199.219162 570.772156,200.482773 
	C569.340515,206.322174 565.737061,208.873230 558.682861,208.980377 
	C552.518005,209.074020 546.350647,209.016342 540.184448,208.995605 
	C533.178711,208.972031 529.183044,205.070999 529.022644,197.929459 
	C528.906677,192.765747 529.122803,187.593719 528.970764,182.431885 
	C528.752136,175.009842 528.070435,167.593597 528.073303,160.175064 
	C528.076233,152.589661 528.800781,145.007339 528.962830,137.418396 
	C529.129944,129.590851 529.103638,121.755310 528.978455,113.926201 
	C528.716003,97.506966 528.044678,81.088882 528.088074,64.671776 
	C528.125122,50.666656 532.353821,50.005276 542.812317,49.139435 
	C548.329285,48.682701 553.961914,49.808754 559.548584,49.926819 
	C562.122681,49.981220 564.716919,49.026554 567.292725,49.071098 
	C571.382263,49.141827 575.466064,49.955444 579.548584,49.927319 
	C584.802368,49.891129 590.051636,49.066959 595.304565,49.047585 
	C617.990662,48.963905 637.609985,56.172096 650.104980,75.961891 
	C657.713684,88.012764 659.298950,101.923645 657.462463,116.350159 
	C656.244324,125.919609 650.911377,133.305130 646.770081,141.348846 
	C645.370239,144.067902 642.172974,145.798370 640.267395,148.334030 
	C636.826538,152.912704 637.332703,156.202805 640.449585,161.080658 
	C646.939331,171.236786 653.086060,181.611771 659.412537,191.872879 
	C660.763489,194.064148 662.464294,196.054031 663.681885,198.310455 
	C666.323669,203.206223 664.276855,208.795898 659.054932,208.725403 
	C646.918335,208.561569 634.475098,211.412964 622.708008,206.962219 
	C618.803833,205.485489 615.018860,202.204636 612.551147,198.764542 
	C608.757141,193.475632 606.148071,187.336823 602.778687,181.285797 
M582.718750,124.000000 
	C584.644165,124.262550 586.562622,124.675194 588.496033,124.764000 
	C604.606323,125.503990 617.525513,120.208000 614.967590,100.764755 
	C614.056213,93.837914 608.595825,89.293236 601.962402,87.863701 
	C594.535950,86.263283 587.236938,86.602753 579.776794,86.854744 
	C573.090393,87.080589 570.914001,90.891319 570.979004,95.693100 
	C571.064392,102.005577 570.999023,108.320084 571.000305,114.633713 
	C571.001831,122.524574 574.164795,125.257103 582.718750,124.000000 
z"/>
<path fill="#000000" opacity="1.000000" stroke="none" 
	d="
M1020.980591,94.000809 
	C1009.361633,105.358574 1005.523010,119.351921 1007.127991,134.729782 
	C1008.582336,148.663788 1016.419189,164.314713 1032.891479,170.331558 
	C1041.435669,173.452515 1050.041870,174.372192 1057.972168,172.495056 
	C1067.099854,170.334503 1075.480957,164.967102 1080.115723,155.599731 
	C1082.682617,150.411987 1087.103882,147.934372 1093.139404,147.923462 
	C1100.870605,147.909485 1108.599609,147.308014 1116.331909,147.026260 
	C1120.063477,146.890320 1124.341431,152.495407 1123.349365,156.171692 
	C1120.127808,168.108841 1115.591309,179.578033 1106.792847,188.435059 
	C1100.233398,195.038055 1092.629272,200.381088 1083.773193,204.234070 
	C1069.869141,210.283295 1055.422485,211.605118 1040.774048,210.848999 
	C1023.059998,209.934677 1006.904724,204.339096 992.517090,193.276276 
	C980.806824,184.272186 972.886230,172.875443 968.018799,159.364395 
	C963.582031,147.048721 961.504089,134.235489 963.937500,121.035301 
	C965.110413,114.672424 965.079834,107.935471 967.204163,101.938164 
	C969.953186,94.177040 973.185730,86.079048 978.262207,79.779922 
	C984.514771,72.021416 992.263306,65.062790 1000.506714,59.428474 
	C1008.764587,53.784260 1018.199768,49.660866 1028.654907,48.950851 
	C1034.497070,48.554104 1040.290649,47.322823 1046.132568,47.062527 
	C1066.125244,46.171715 1084.185791,52.425251 1100.094971,63.993443 
	C1106.045532,68.320404 1110.739990,74.850586 1114.802979,81.152534 
	C1118.271362,86.532166 1120.174316,92.963707 1122.462036,99.045700 
	C1123.823608,102.665115 1122.782227,106.007072 1118.750488,106.964600 
	C1108.371094,109.429741 1097.799805,108.725967 1087.502197,106.841820 
	C1084.125488,106.223976 1080.690796,102.733940 1078.442383,99.698341 
	C1069.445068,87.550720 1057.830566,83.760231 1043.040161,85.711731 
	C1034.877808,86.788681 1027.360229,87.960861 1020.980591,94.000809 
z"/>
<path fill="#000000" opacity="1.000000" stroke="none" 
	d="
M850.251770,49.001423 
	C856.308228,49.333534 861.893494,49.946892 867.476501,49.927299 
	C874.061951,49.904198 880.663452,48.854759 887.226074,49.100525 
	C900.560181,49.599865 913.457153,51.931206 924.736206,59.944599 
	C938.031799,69.390732 946.740234,81.757828 948.946106,98.065018 
	C951.959778,120.345093 947.020508,140.290726 929.068542,155.064697 
	C923.947205,159.279404 916.917908,161.260239 910.630615,163.955215 
	C898.964844,168.955551 886.555603,168.044601 874.310547,167.942032 
	C866.554260,167.877060 862.113586,171.170898 862.877441,179.262360 
	C863.485596,185.703552 862.945068,192.248596 863.016724,198.746399 
	C863.078430,204.344009 861.383118,208.286713 855.521851,208.559280 
	C845.582764,209.021469 835.496704,210.584335 825.559509,207.337830 
	C822.195374,206.238754 821.241394,204.406158 821.004028,201.456055 
	C820.977417,201.124924 821.003540,200.789780 820.999573,200.456558 
	C820.666748,172.543381 820.281006,144.630630 820.052185,116.716591 
	C820.014587,112.134949 820.911926,107.549919 820.954102,102.962563 
	C821.081421,89.131607 820.999939,75.298737 821.000000,61.466618 
	C821.000000,52.611156 828.029419,47.482201 836.729004,49.163197 
	C840.912659,49.971596 845.419189,49.108662 850.251770,49.001423 
M902.019226,124.467354 
	C906.299255,119.249626 908.485474,113.388680 908.029724,106.525452 
	C907.220093,94.334686 898.082458,86.068222 887.101318,86.934425 
	C882.643494,87.286064 878.063538,87.368629 873.654968,86.749176 
	C867.862915,85.935333 863.077637,89.295868 863.021667,95.190353 
	C862.938049,104.012505 862.947205,112.836472 863.018127,121.658844 
	C863.067261,127.776260 867.747559,131.170105 873.886597,130.148026 
	C876.233887,129.757233 878.758240,130.590485 881.201050,130.583160 
	C888.455383,130.561386 895.867310,130.970718 902.019226,124.467354 
z"/>
<path fill="#000000" opacity="1.000000" stroke="none" 
	d="
M376.000031,132.000198 
	C376.333374,122.250916 376.850739,113.003700 376.957214,103.751740 
	C377.120239,89.589752 376.999969,75.424507 377.000061,61.260643 
	C377.000122,52.843254 380.913910,49.001095 389.489990,49.000244 
	C395.986847,48.999599 402.486877,48.875427 408.979462,49.041546 
	C413.735535,49.163231 418.484375,49.969105 423.231842,49.929077 
	C430.317657,49.869324 437.427917,48.767853 444.476746,49.122864 
	C457.437073,49.775616 470.075836,52.130260 480.960938,60.000179 
	C493.977692,69.411331 502.746887,81.680260 504.931671,97.810921 
	C507.885895,119.622429 503.148041,139.010788 486.192352,154.446228 
	C480.430878,159.691132 473.103455,161.053741 466.398315,163.971085 
	C454.901337,168.973312 442.654663,168.034637 430.579681,167.938477 
	C422.206604,167.871811 418.140472,171.257065 418.883362,179.489960 
	C419.464996,185.935379 419.069000,192.476166 418.981384,198.972900 
	C418.885986,206.044495 416.503326,208.436508 411.308868,208.601837 
	C401.378113,208.917923 391.304291,210.656525 381.376404,207.226379 
	C377.893555,206.023041 377.150879,204.091553 377.034210,201.234131 
	C376.891571,197.741089 377.048981,194.236984 376.991974,190.739044 
	C376.675537,171.325851 376.333374,151.913055 376.000031,132.000198 
M429.242035,86.763344 
	C424.003662,85.760475 419.127319,89.338577 419.041779,94.586105 
	C418.892700,103.731300 418.920319,112.881630 419.029114,122.027969 
	C419.097717,127.793900 424.000977,131.286636 429.747528,130.167496 
	C431.828796,129.762161 434.065521,129.873749 436.200989,130.073593 
	C451.103241,131.468185 457.730652,128.687424 462.457642,116.983452 
	C467.650848,104.125206 460.620422,85.938568 443.069946,86.961815 
	C438.760590,87.213058 434.423584,86.989899 429.242035,86.763344 
z"/>
<path fill="#000000" opacity="1.000000" stroke="none" 
	d="
M687.250977,68.430954 
	C687.604309,65.580887 688.239136,63.039562 687.785217,60.710476 
	C686.344849,53.321556 690.367432,49.251755 697.987000,49.846359 
	C702.831726,50.224419 707.773193,49.111790 712.676392,49.044315 
	C723.167297,48.899937 733.661621,49.000088 744.154541,49.000088 
	C752.628479,49.000088 761.104492,48.889427 769.575562,49.045483 
	C773.992981,49.126858 778.428589,49.479816 782.807129,50.071072 
	C787.470642,50.700798 789.737366,54.006416 789.928955,58.388977 
	C790.205078,64.705971 790.120422,71.047012 789.962891,77.372147 
	C789.827820,82.796135 784.990479,86.851135 778.263916,86.927345 
	C773.852661,86.977310 769.429565,86.012268 765.018738,86.066574 
	C755.772034,86.180428 746.523743,86.551735 737.287903,87.039452 
	C730.641602,87.390419 728.192688,92.894646 730.170715,101.582008 
	C731.252014,106.331505 734.089722,108.040367 738.638733,108.019066 
	C750.630371,107.962898 762.622437,107.986679 774.614319,108.004974 
	C782.127869,108.016434 784.093323,110.562790 784.694824,115.837357 
	C785.537659,123.227539 785.314453,130.819382 784.741516,138.262924 
	C784.356750,143.261322 781.282715,144.970581 775.230286,144.989090 
	C763.238525,145.025772 751.246521,144.989014 739.254639,145.004333 
	C732.799744,145.012573 730.031921,147.779495 730.002197,154.199753 
	C729.989136,157.031113 729.990479,159.862625 730.001892,162.693985 
	C730.028076,169.171188 731.900452,170.991150 738.577209,170.997513 
	C748.740112,171.007217 758.904724,170.889450 769.065247,171.044769 
	C774.483459,171.127609 779.921082,171.445999 785.300354,172.078918 
	C789.284973,172.547729 791.827332,175.178360 791.942932,179.268616 
	C792.145264,186.424713 792.144531,193.594650 791.948120,200.751083 
	C791.817688,205.506668 788.044189,208.890259 782.558899,208.945587 
	C767.237488,209.100128 751.913513,208.999329 736.590515,208.999435 
	C724.933472,208.999512 713.276489,209.000351 701.619446,208.999771 
	C690.705933,208.999237 684.935486,201.077240 687.152100,190.282715 
	C688.113037,185.603317 687.221924,180.558014 687.325073,175.682144 
	C687.379028,173.132431 687.950378,170.591019 687.967773,168.043655 
	C688.043091,157.051590 688.000000,146.058716 688.000000,135.066147 
	C688.000000,126.900620 688.000000,118.735085 688.000000,110.569557 
	C688.000000,101.240082 688.101807,91.909012 687.956543,82.581802 
	C687.885071,77.996468 687.356018,73.418274 687.250977,68.430954 
z"/>
<path fill="#000000" opacity="1.000000" stroke="none" 
	d="
M1420.369873,207.994980 
	C1415.170898,205.948532 1411.782349,202.976639 1409.763550,197.740601 
	C1407.514526,191.907303 1402.636230,188.764328 1395.880005,188.945190 
	C1387.389648,189.172485 1378.888672,188.999954 1370.392212,188.999954 
	C1364.403320,188.999954 1358.413818,189.048279 1352.425537,188.986160 
	C1346.609741,188.925827 1342.356689,191.553574 1339.871704,196.652603 
	C1336.249878,204.084366 1331.233398,208.586945 1322.248047,208.135956 
	C1315.374023,207.790955 1308.441772,208.754517 1301.530273,208.977478 
	C1293.130615,209.248428 1291.754272,203.979919 1295.100952,196.203888 
	C1299.776123,185.341156 1305.287964,174.840164 1310.375366,164.152740 
	C1320.026367,143.877884 1329.723755,123.624245 1339.217651,103.275810 
	C1344.819092,91.270416 1349.844727,78.993462 1355.572876,67.051491 
	C1358.203247,61.567768 1361.352051,56.135941 1365.240967,51.498436 
	C1371.203125,44.388691 1383.349854,47.543793 1386.999756,55.316357 
	C1395.430786,73.270058 1403.621704,91.336792 1412.097534,109.269135 
	C1416.884888,119.397598 1422.206177,129.273499 1426.999634,139.399231 
	C1435.787720,157.963470 1444.388062,176.616882 1452.990479,195.268250 
	C1453.917603,197.278320 1454.765991,199.495026 1454.897339,201.661530 
	C1455.089844,204.839478 1454.671021,208.063568 1450.143555,208.013977 
	C1445.330566,207.961273 1440.512451,207.892105 1435.704346,208.056824 
	C1432.454956,208.168182 1429.223755,208.837631 1425.974976,208.932526 
	C1424.255981,208.982727 1422.516602,208.338593 1420.369873,207.994980 
M1370.506348,125.997887 
	C1367.676758,132.264755 1364.950806,138.581345 1361.979004,144.780075 
	C1360.156494,148.581711 1362.219360,150.595398 1365.285034,150.847275 
	C1371.217773,151.334686 1377.229980,151.220291 1383.186890,150.917603 
	C1387.013428,150.723160 1388.339844,147.981812 1386.774536,144.329819 
	C1383.943726,137.724579 1381.097168,131.123260 1378.075317,124.604645 
	C1377.335083,123.007881 1375.891602,121.737190 1374.771362,120.316582 
	C1373.501465,122.002708 1372.231445,123.688828 1370.506348,125.997887 
z"/>
<path fill="#000000" opacity="1.000000" stroke="none" 
	d="
M1513.733521,109.694977 
	C1517.468506,102.754097 1520.972290,96.116928 1524.825684,88.817566 
	C1522.878540,88.068474 1521.499390,87.094200 1520.105957,87.073486 
	C1510.777588,86.934731 1501.438110,87.234718 1492.118530,86.915588 
	C1485.791870,86.698936 1479.485962,85.757736 1473.182007,85.041420 
	C1469.291992,84.599403 1468.151978,81.633118 1468.059570,78.401939 
	C1467.864380,71.578316 1467.924683,64.744110 1468.025391,57.916397 
	C1468.098145,52.989021 1472.114014,49.030422 1477.110718,49.022068 
	C1504.594116,48.976109 1532.077759,48.927338 1559.560547,49.046001 
	C1567.455444,49.080093 1575.353149,49.576714 1583.239868,50.029324 
	C1589.304688,50.377380 1591.873901,54.847641 1588.875610,60.268021 
	C1582.653687,71.516144 1576.085205,82.572052 1569.772095,93.770523 
	C1566.633423,99.337822 1563.853149,105.106949 1560.720337,110.677765 
	C1552.454956,125.375282 1544.086060,140.014603 1535.757202,154.676422 
	C1533.941772,157.872101 1532.172852,161.095642 1530.290527,164.251511 
	C1527.943604,168.186188 1529.321289,170.918243 1533.930298,170.973984 
	C1541.757690,171.068634 1549.589844,170.871140 1557.415039,171.033783 
	C1566.498291,171.222565 1575.578613,171.612198 1584.655273,172.024414 
	C1589.023560,172.222839 1591.771118,175.114075 1591.941406,180.128983 
	C1592.172974,186.950333 1592.344849,193.808182 1591.896973,200.607880 
	C1591.494019,206.723068 1588.168213,208.476242 1579.728271,208.822723 
	C1569.020752,209.262268 1558.258911,208.135727 1547.522705,208.181015 
	C1527.295044,208.266342 1507.069092,208.722748 1486.841919,208.989380 
	C1481.512695,209.059631 1476.181519,209.028442 1470.851685,208.992630 
	C1464.414673,208.949371 1461.572998,205.551117 1464.109497,199.788559 
	C1467.841797,191.309540 1472.118652,183.038696 1476.644287,174.948013 
	C1483.071899,163.457230 1490.058716,152.280518 1496.577026,140.838776 
	C1502.380859,130.651077 1507.872803,120.285652 1513.733521,109.694977 
z"/>
<path fill="#030303" opacity="1.000000" stroke="none" 
	d="
M160.145905,237.147705 
	C153.893784,248.686600 145.138550,254.318832 131.706833,253.753571 
	C118.170738,253.183945 104.545349,255.069382 90.976784,254.838501 
	C78.962700,254.634048 66.899956,253.523972 54.990364,251.867188 
	C39.017159,249.645096 28.588305,237.910675 27.291006,221.537735 
	C38.784992,229.262115 51.573978,229.110321 64.405899,229.024796 
	C82.568581,228.903717 100.756058,228.426010 118.888824,229.172424 
	C133.601562,229.778076 143.066574,223.439148 149.357086,210.772415 
	C152.082611,205.284256 155.305328,200.042389 158.318665,194.697937 
	C163.630508,185.276855 171.789871,180.930328 182.513016,180.978836 
	C196.343643,181.041412 210.175934,180.880508 224.005402,181.021973 
	C242.553238,181.211700 257.416107,173.444534 270.197174,160.555038 
	C284.185120,146.448456 295.569794,130.368408 305.674835,113.430923 
	C312.777832,101.525391 318.714966,88.924507 325.181854,76.638947 
	C325.787720,75.487968 326.459595,74.371735 327.289734,72.905769 
	C336.714905,87.196739 337.555756,102.020981 329.452698,116.143738 
	C319.744385,133.064285 308.277008,148.967285 297.841583,165.481705 
	C290.380798,177.288666 281.462006,187.555237 269.413727,194.831451 
	C255.578247,203.186981 240.406769,206.503098 224.396759,206.514420 
	C212.269165,206.523010 200.140793,206.409454 188.014175,206.513809 
	C180.009537,206.582672 174.837051,211.180099 171.089630,217.783020 
	C167.489838,224.125870 163.890991,230.469269 160.145905,237.147705 
z"/>
<path fill="#FFFFFF" opacity="1.000000" stroke="none" 
	d="
M143.161789,138.129395 
	C140.449493,140.816544 137.589218,142.967728 135.631073,145.753082 
	C130.403336,153.189301 125.307236,160.744720 120.639305,168.540466 
	C115.727028,176.744293 108.323296,180.239227 99.313156,180.937988 
	C93.359749,181.399704 87.348312,181.620010 81.393997,181.323334 
	C78.872047,181.197678 75.696518,180.068237 74.213196,178.254227 
	C73.247444,177.073166 74.164322,173.445831 75.315842,171.579590 
	C87.827705,151.302109 100.585754,131.176758 113.196938,110.960167 
	C116.338661,105.923767 118.897362,100.505959 122.239700,95.615906 
	C130.421738,83.645050 142.081757,76.598396 156.410141,76.225494 
	C195.129517,75.217827 233.870560,75.041985 274.002045,74.517860 
	C267.411255,84.964058 261.379333,94.171623 255.714020,103.599487 
	C249.612289,113.753609 241.351288,121.703796 230.463211,125.935013 
	C222.887222,128.879135 214.554535,130.745499 206.444916,131.251892 
	C192.836533,132.101654 179.134109,131.640366 165.476059,131.425476 
	C157.371780,131.298004 150.074677,133.335922 143.161789,138.129395 
z"/>
<path fill="#FEFEFE" opacity="1.000000" stroke="none" 
	d="
M230.000000,26.003845 
	C246.642532,26.177958 262.800385,25.991642 278.921204,26.676880 
	C287.091125,27.024155 290.700287,31.742083 290.485229,39.250256 
	C290.247803,47.539684 286.744232,50.988403 278.442657,50.990818 
	C237.962585,51.002602 197.482483,50.979916 157.002426,51.003162 
	C137.375961,51.014435 120.212479,57.606407 107.483322,72.585045 
	C99.702744,81.740601 93.465881,92.312355 87.275192,102.689232 
	C78.884819,116.753242 71.240303,131.260956 63.203747,145.537750 
	C58.012184,154.760483 52.788235,163.968018 47.381432,173.065063 
	C45.201385,176.733032 42.262024,179.654526 37.310852,178.529510 
	C31.472324,177.202850 26.407194,172.834488 26.329731,167.813324 
	C26.278934,164.520676 27.299347,160.826920 28.953344,157.953705 
	C41.506786,136.146637 54.166336,114.396263 67.137741,92.835739 
	C75.667221,78.658409 83.673019,63.957390 93.888832,51.055054 
	C107.216545,34.222477 126.028679,26.316593 147.541595,26.077349 
	C174.857956,25.773558 202.180252,26.003845 230.000000,26.003845 
z"/>
<path fill="#FFFFFF" opacity="1.000000" stroke="none" 
	d="
M1217.708496,87.016235 
	C1221.780029,88.531387 1226.429688,89.122635 1228.776855,91.761765 
	C1231.767700,95.124779 1233.615234,99.978271 1234.655518,104.489067 
	C1236.134033,110.900864 1230.076416,120.907082 1223.796875,122.553307 
	C1217.976929,124.079094 1212.097656,126.621948 1205.723755,124.133255 
	C1203.848633,123.401123 1201.418701,123.783348 1199.294189,124.055130 
	C1193.369141,124.813080 1190.032715,122.058609 1190.006836,116.075478 
	C1189.977295,109.263893 1190.049805,102.451591 1189.983032,95.640533 
	C1189.936279,90.872581 1192.035278,86.695206 1198.835083,86.951378 
	C1204.969971,87.182503 1211.120239,87.001411 1217.708496,87.016235 
z"/>
<path fill="#FFFFFF" opacity="1.000000" stroke="none" 
	d="
M582.278931,124.000031 
	C574.164795,125.257103 571.001831,122.524574 571.000305,114.633713 
	C570.999023,108.320084 571.064392,102.005577 570.979004,95.693100 
	C570.914001,90.891319 573.090393,87.080589 579.776794,86.854744 
	C587.236938,86.602753 594.535950,86.263283 601.962402,87.863701 
	C608.595825,89.293236 614.056213,93.837914 614.967590,100.764755 
	C617.525513,120.208000 604.606323,125.503990 588.496033,124.764000 
	C586.562622,124.675194 584.644165,124.262550 582.278931,124.000031 
z"/>
<path fill="#FFFFFF" opacity="1.000000" stroke="none" 
	d="
M901.759583,124.733810 
	C895.867310,130.970718 888.455383,130.561386 881.201050,130.583160 
	C878.758240,130.590485 876.233887,129.757233 873.886597,130.148026 
	C867.747559,131.170105 863.067261,127.776260 863.018127,121.658844 
	C862.947205,112.836472 862.938049,104.012505 863.021667,95.190353 
	C863.077637,89.295868 867.862915,85.935333 873.654968,86.749176 
	C878.063538,87.368629 882.643494,87.286064 887.101318,86.934425 
	C898.082458,86.068222 907.220093,94.334686 908.029724,106.525452 
	C908.485474,113.388680 906.299255,119.249626 901.759583,124.733810 
z"/>
<path fill="#FFFFFF" opacity="1.000000" stroke="none" 
	d="
M429.670654,86.874092 
	C434.423584,86.989899 438.760590,87.213058 443.069946,86.961815 
	C460.620422,85.938568 467.650848,104.125206 462.457642,116.983452 
	C457.730652,128.687424 451.103241,131.468185 436.200989,130.073593 
	C434.065521,129.873749 431.828796,129.762161 429.747528,130.167496 
	C424.000977,131.286636 419.097717,127.793900 419.029114,122.027969 
	C418.920319,112.881630 418.892700,103.731300 419.041779,94.586105 
	C419.127319,89.338577 424.003662,85.760475 429.670654,86.874092 
z"/>
<path fill="#FFFFFF" opacity="1.000000" stroke="none" 
	d="
M1370.733887,125.686417 
	C1372.231445,123.688828 1373.501465,122.002708 1374.771362,120.316589 
	C1375.891602,121.737190 1377.335083,123.007881 1378.075317,124.604645 
	C1381.097168,131.123260 1383.943726,137.724579 1386.774536,144.329819 
	C1388.339844,147.981812 1387.013428,150.723160 1383.186890,150.917603 
	C1377.229980,151.220291 1371.217773,151.334686 1365.285034,150.847275 
	C1362.219360,150.595398 1360.156494,148.581711 1361.979004,144.780075 
	C1364.950806,138.581345 1367.676758,132.264755 1370.733887,125.686417 
z"/>
</svg>